<svg width="266" height="54" viewBox="0 0 266 54" fill="none" xmlns="http://www.w3.org/2000/svg">
<path d="M77 26.9993C77 19.8386 73.7162 12.9712 67.871 7.90789C62.0259 2.84456 54.0982 9.39005e-07 45.8319 0C37.5657 -9.39003e-07 29.638 2.84456 23.7929 7.90789C17.9477 12.9712 14.6639 19.8386 14.6639 26.9993H24.4041C27.6316 26.9993 30.1488 24.6562 31.331 22.0546C32.1071 20.3465 33.2849 18.7768 34.8123 17.4535C37.7349 14.9219 41.6988 13.4996 45.8319 13.4996C49.9651 13.4996 53.929 14.9219 56.8516 17.4535C59.7742 19.9852 61.4159 23.419 61.4159 26.9993H77Z" fill="url(#paint0_linear_4_29)"/>
<path d="M59.0437 37.333C60.6101 34.0573 61.4163 30.5464 61.4163 27.0009H76.9987C76.9987 41.9122 63.0442 54 45.8306 54C43.1349 54 40.5189 53.7036 38.0243 53.1463C39.4358 52.8313 40.8231 52.4301 42.1757 51.9449C45.9572 50.588 49.3931 48.5994 52.2874 46.0922C55.1816 43.5851 57.4775 40.6087 59.0437 37.333Z" fill="#4392F9"/>
<path d="M0 26.9975C-5.85545e-07 30.5432 0.806184 34.0541 2.37252 37.3298C3.93887 40.6055 6.23467 43.5819 9.1289 46.089C12.0231 48.596 15.459 50.5848 19.2405 51.9416C23.022 53.2985 27.0749 53.9968 31.168 53.9968C35.261 53.9968 39.3139 53.2985 43.0954 51.9416C46.8769 50.5848 50.3129 48.596 53.2071 46.089C56.1013 43.5819 58.3971 40.6055 59.9634 37.3298C61.5298 34.0541 62.3361 30.5432 62.3361 26.9975H52.5959C49.3683 26.9975 46.8512 29.3405 45.669 31.942C45.6354 32.0161 45.6009 32.0899 45.5657 32.1637C44.7825 33.8015 43.6347 35.2898 42.1875 36.5433C40.7404 37.7967 39.0224 38.7912 37.1317 39.4697C35.2411 40.1481 33.2146 40.4972 31.168 40.4972C29.1215 40.4972 27.095 40.1481 25.2043 39.4697C23.3135 38.7912 21.5956 37.7967 20.1484 36.5433C18.7013 35.2898 17.5534 33.8015 16.7703 32.1637C15.9871 30.5258 15.584 28.7704 15.584 26.9975H0Z" fill="url(#paint1_linear_4_29)"/>
<path d="M0.00311279 26.9993C0.00311279 12.0879 13.9575 0 31.171 0C33.8661 0 36.4813 0.296307 38.9757 0.853388C33.6234 2.04777 28.686 4.46489 24.7112 7.90791C18.8661 12.9712 15.5824 19.8386 15.5824 26.9993H0.00311279Z" fill="#F83758"/>
<path d="M84.0536 38V36.832L86.7576 36.208V15.376L84.0536 14.784V13.632H103.43L103.974 20.592H102.742C102.486 19.76 102.176 18.896 101.814 18C101.451 17.104 101.003 16.24 100.47 15.408H92.1656V36.208L95.7656 36.832V38H84.0536ZM97.6056 29.536C97.403 28.3627 97.0136 27.1627 96.4376 25.936H91.7496V24.256H96.4376C96.747 23.648 96.9923 23.0507 97.1736 22.464C97.355 21.8667 97.499 21.2747 97.6056 20.688H98.8536V29.536H97.6056ZM105.134 38V36.88L107.838 36.256V24.032L105.134 23.168V22.416L112.078 20.896H112.75V36.256L115.278 36.88V38H105.134ZM110.238 18.528C109.363 18.528 108.691 18.256 108.222 17.712C107.753 17.168 107.518 16.576 107.518 15.936C107.518 15.2427 107.758 14.6293 108.238 14.096C108.729 13.5627 109.395 13.296 110.238 13.296C111.102 13.296 111.785 13.5627 112.286 14.096C112.798 14.6293 113.054 15.2427 113.054 15.936C113.054 16.576 112.814 17.168 112.334 17.712C111.865 18.256 111.166 18.528 110.238 18.528ZM122.492 38.336C121.681 38.336 120.823 38.272 119.916 38.144C119.009 38.0267 118.231 37.8613 117.58 37.648L117.372 32.496H118.732C118.828 33.872 119.185 34.928 119.804 35.664C120.433 36.3893 121.297 36.752 122.396 36.752C123.217 36.752 123.873 36.544 124.364 36.128C124.855 35.7013 125.1 35.1467 125.1 34.464C125.1 33.9307 124.908 33.456 124.524 33.04C124.151 32.6133 123.511 32.16 122.604 31.68L121.068 30.896C119.809 30.2347 118.881 29.4987 118.284 28.688C117.697 27.8773 117.404 26.912 117.404 25.792C117.404 24.1813 117.991 22.9653 119.164 22.144C120.348 21.312 122.087 20.896 124.38 20.896C125.191 20.896 125.969 20.9493 126.716 21.056C127.473 21.152 128.081 21.2853 128.54 21.456V25.84H127.324C127.015 23.6 125.959 22.48 124.156 22.48C123.431 22.48 122.844 22.656 122.396 23.008C121.959 23.36 121.74 23.8187 121.74 24.384C121.74 24.8853 121.937 25.3387 122.332 25.744C122.727 26.1387 123.409 26.5707 124.38 27.04L125.9 27.824C127.084 28.432 127.959 29.1467 128.524 29.968C129.089 30.7787 129.372 31.76 129.372 32.912C129.372 34.6187 128.769 35.952 127.564 36.912C126.359 37.8613 124.668 38.336 122.492 38.336ZM131.224 38V36.88L133.592 36.256V14.88L131.208 14V13.264L137.832 11.712H138.52V36.256L140.728 36.88V38H131.224ZM142.472 38V36.88L144.696 36.256V27.584C144.696 26.2827 144.435 25.3227 143.912 24.704C143.389 24.0747 142.605 23.76 141.56 23.76C140.909 23.76 140.301 23.888 139.736 24.144C139.171 24.4 138.637 24.752 138.136 25.2V23.2C138.957 22.56 139.928 22.016 141.048 21.568C142.179 21.12 143.336 20.896 144.52 20.896C147.912 20.896 149.608 22.752 149.608 26.464V36.256L151.992 36.88V38H142.472ZM170.857 38.288C169.875 38.288 168.921 38.16 167.993 37.904C167.065 37.648 166.067 37.248 165.001 36.704L163.897 38H162.905L162.281 29.888L163.609 29.68C164.291 32.0587 165.193 33.7813 166.313 34.848C167.443 35.9147 168.942 36.448 170.809 36.448C172.142 36.448 173.203 36.128 173.993 35.488C174.793 34.848 175.193 33.968 175.193 32.848C175.193 32.176 174.91 31.552 174.345 30.976C173.79 30.3893 172.83 29.7653 171.465 29.104L168.889 27.824C166.798 26.7893 165.262 25.6427 164.281 24.384C163.299 23.1253 162.809 21.6587 162.809 19.984C162.809 18.6933 163.166 17.5467 163.881 16.544C164.595 15.5307 165.561 14.736 166.777 14.16C168.003 13.584 169.39 13.296 170.937 13.296C173.102 13.296 174.958 13.952 176.505 15.264L177.257 13.584H178.313L178.617 20.592H177.225C176.702 18.7893 175.934 17.4347 174.921 16.528C173.918 15.6213 172.643 15.168 171.097 15.168C170.009 15.168 169.161 15.4347 168.553 15.968C167.945 16.5013 167.641 17.2373 167.641 18.176C167.641 18.9013 167.913 19.552 168.457 20.128C169.001 20.6933 169.945 21.3173 171.289 22L173.817 23.296C175.822 24.32 177.262 25.4453 178.137 26.672C179.022 27.8987 179.465 29.3707 179.465 31.088C179.465 32.4533 179.086 33.68 178.329 34.768C177.571 35.856 176.542 36.7147 175.241 37.344C173.939 37.9733 172.478 38.288 170.857 38.288ZM181.661 38V36.88L184.029 36.256V14.88L181.645 14V13.264L188.269 11.712H188.957V36.256L191.165 36.88V38H181.661ZM192.909 38V36.88L195.133 36.256V27.584C195.133 26.2827 194.872 25.3227 194.349 24.704C193.827 24.0747 193.043 23.76 191.997 23.76C191.347 23.76 190.739 23.888 190.173 24.144C189.608 24.4 189.075 24.752 188.573 25.2V23.2C189.395 22.56 190.365 22.016 191.485 21.568C192.616 21.12 193.773 20.896 194.957 20.896C198.349 20.896 200.045 22.752 200.045 26.464V36.256L202.429 36.88V38H192.909ZM213.183 38.336C211.252 38.336 209.61 37.9413 208.255 37.152C206.911 36.3627 205.887 35.3067 205.183 33.984C204.49 32.6613 204.143 31.2053 204.143 29.616C204.143 28.016 204.49 26.56 205.183 25.248C205.887 23.9253 206.911 22.8693 208.255 22.08C209.61 21.2907 211.252 20.896 213.183 20.896C215.114 20.896 216.746 21.2907 218.079 22.08C219.423 22.8693 220.447 23.9253 221.151 25.248C221.855 26.56 222.207 28.016 222.207 29.616C222.207 31.2053 221.855 32.6613 221.151 33.984C220.447 35.3067 219.423 36.3627 218.079 37.152C216.746 37.9413 215.114 38.336 213.183 38.336ZM213.183 36.704C213.951 36.704 214.575 36.48 215.055 36.032C215.546 35.5733 215.919 34.9813 216.175 34.256C216.442 33.5307 216.623 32.7627 216.719 31.952C216.826 31.1307 216.879 30.352 216.879 29.616C216.879 28.8907 216.831 28.1173 216.735 27.296C216.639 26.4747 216.458 25.7067 216.191 24.992C215.935 24.2667 215.562 23.68 215.071 23.232C214.591 22.7733 213.962 22.544 213.183 22.544C212.404 22.544 211.77 22.7733 211.279 23.232C210.788 23.68 210.41 24.2667 210.143 24.992C209.887 25.7067 209.711 26.4747 209.615 27.296C209.519 28.1173 209.471 28.8907 209.471 29.616C209.471 30.352 209.519 31.1307 209.615 31.952C209.711 32.7627 209.887 33.5307 210.143 34.256C210.41 34.9813 210.788 35.5733 211.279 36.032C211.77 36.48 212.404 36.704 213.183 36.704ZM223.687 45.92V45.168L226.423 44.336V24.032L223.751 23.168V22.416L230.311 20.896H231.047V23.248H231.207C231.793 22.5227 232.561 21.952 233.511 21.536C234.46 21.1093 235.452 20.896 236.487 20.896C237.873 20.896 239.1 21.2533 240.167 21.968C241.233 22.672 242.071 23.6533 242.679 24.912C243.287 26.16 243.591 27.5947 243.591 29.216C243.591 31.0507 243.207 32.656 242.439 34.032C241.671 35.3973 240.593 36.4587 239.207 37.216C237.831 37.9627 236.209 38.336 234.343 38.336C233.767 38.336 233.239 38.2933 232.759 38.208C232.279 38.1227 231.809 38 231.351 37.84V44.336L235.559 45.168V45.92H223.687ZM234.407 36.624C235.175 36.624 235.841 36.336 236.407 35.76C236.983 35.1733 237.431 34.368 237.751 33.344C238.071 32.3093 238.231 31.1147 238.231 29.76C238.231 27.7973 237.895 26.2453 237.223 25.104C236.551 23.952 235.644 23.376 234.503 23.376C233.852 23.376 233.223 23.552 232.615 23.904C232.017 24.256 231.596 24.704 231.351 25.248V33.12C231.351 34.0907 231.649 34.9173 232.247 35.6C232.844 36.2827 233.564 36.624 234.407 36.624Z" fill="black"/>
<defs>
<linearGradient id="paint0_linear_4_29" x1="77" y1="13.4996" x2="14.6639" y2="13.4996" gradientUnits="userSpaceOnUse">
<stop stop-color="#CFE2FC"/>
<stop offset="1" stop-color="#4392F9"/>
</linearGradient>
<linearGradient id="paint1_linear_4_29" x1="2.04359e-06" y1="40.4972" x2="62.3361" y2="40.4972" gradientUnits="userSpaceOnUse">
<stop stop-color="#F8BCC6"/>
<stop offset="1" stop-color="#F83758"/>
</linearGradient>
</defs>
</svg>
